<svg width="1024" height="1024" viewBox="0 0 1024 1024" fill="none" xmlns="http://www.w3.org/2000/svg">
<rect width="1024" height="1024" fill="black"/>
<path d="M729.394 644.364C708.733 644.364 691 639.136 676.195 628.68C661.474 618.141 650.14 602.959 642.194 583.136C634.331 563.228 630.4 539.264 630.4 511.243C630.483 483.222 634.456 459.383 642.319 439.726C650.265 419.986 661.599 404.93 676.321 394.558C691.126 384.186 708.817 379 729.394 379C749.97 379 767.661 384.186 782.466 394.558C797.271 404.93 808.605 419.986 816.468 439.726C824.414 459.466 828.387 483.305 828.387 511.243C828.387 539.347 824.414 563.354 816.468 583.261C808.605 603.085 797.271 618.225 782.466 628.68C767.745 639.136 750.054 644.364 729.394 644.364ZM729.394 605.092C745.453 605.092 758.126 597.188 767.41 581.379C776.778 565.486 781.462 542.108 781.462 511.243C781.462 490.833 779.33 473.686 775.064 459.801C770.798 445.916 764.775 435.46 756.996 428.434C749.217 421.324 740.016 417.769 729.394 417.769C713.417 417.769 700.787 425.716 691.502 441.608C682.218 457.417 677.534 480.629 677.45 511.243C677.366 531.736 679.416 548.967 683.598 562.935C687.864 576.904 693.886 587.443 701.665 594.553C709.444 601.579 718.687 605.092 729.394 605.092Z" fill="white"/>
<path d="M473.314 446.752L512.209 517.893L551.732 446.752H599.786L541.694 543.111L600.789 639.47H552.986L512.209 570.087L471.809 639.47H423.629L482.348 543.111L425.135 446.752H473.314Z" fill="white"/>
<path d="M294.994 644.364C274.334 644.364 256.601 639.136 241.796 628.68C227.074 618.141 215.74 602.959 207.794 583.136C199.931 563.228 196 539.264 196 511.243C196.084 483.222 200.057 459.383 207.919 439.726C215.866 419.986 227.2 404.93 241.921 394.558C256.726 384.186 274.417 379 294.994 379C315.57 379 333.261 384.186 348.067 394.558C362.872 404.93 374.206 419.986 382.068 439.726C390.014 459.466 393.988 483.305 393.988 511.243C393.988 539.347 390.014 563.354 382.068 583.261C374.206 603.085 362.872 618.225 348.067 628.68C333.345 639.136 315.654 644.364 294.994 644.364ZM294.994 605.092C311.054 605.092 323.726 597.188 333.01 581.379C342.379 565.486 347.063 542.108 347.063 511.243C347.063 490.833 344.93 473.686 340.664 459.801C336.398 445.916 330.376 435.46 322.597 428.434C314.818 421.324 305.617 417.769 294.994 417.769C279.018 417.769 266.387 425.716 257.103 441.608C247.818 457.417 243.134 480.629 243.05 511.243C242.967 531.736 245.016 548.967 249.198 562.935C253.464 576.904 259.487 587.443 267.266 594.553C275.044 601.579 284.287 605.092 294.994 605.092Z" fill="white"/>
</svg>
